<mxfile host="Electron" agent="Mozilla/5.0 (Macintosh; Intel Mac OS X 10_15_7) AppleWebKit/537.36 (KHTML, like Gecko) draw.io/27.0.5 Chrome/134.0.6998.205 Electron/35.3.0 Safari/537.36" version="27.0.5">
  <diagram name="第 1 页" id="yzlm8xinp8iX30vhZnXE">
    <mxGraphModel dx="1634" dy="803" grid="1" gridSize="10" guides="1" tooltips="1" connect="1" arrows="1" fold="1" page="0" pageScale="1" pageWidth="827" pageHeight="1169" math="0" shadow="0">
      <root>
        <mxCell id="0" />
        <mxCell id="1" parent="0" />
        <mxCell id="f1JXGICR3c98WOWb6M3R-25" style="rounded=0;orthogonalLoop=1;jettySize=auto;html=1;exitX=0;exitY=1;exitDx=0;exitDy=0;entryX=1;entryY=0;entryDx=0;entryDy=0;fontSize=20;endArrow=none;endFill=1;startFill=0;fontColor=light-dark(#ffffff, #ededed);" edge="1" parent="1" source="f1JXGICR3c98WOWb6M3R-1" target="f1JXGICR3c98WOWb6M3R-2">
          <mxGeometry relative="1" as="geometry" />
        </mxCell>
        <mxCell id="f1JXGICR3c98WOWb6M3R-26" style="rounded=0;orthogonalLoop=1;jettySize=auto;html=1;exitX=1;exitY=1;exitDx=0;exitDy=0;entryX=0;entryY=0;entryDx=0;entryDy=0;fontSize=20;endArrow=none;endFill=1;startFill=0;fontColor=light-dark(#ffffff, #ededed);" edge="1" parent="1" source="f1JXGICR3c98WOWb6M3R-1" target="f1JXGICR3c98WOWb6M3R-4">
          <mxGeometry relative="1" as="geometry" />
        </mxCell>
        <mxCell id="f1JXGICR3c98WOWb6M3R-1" value="13" style="ellipse;whiteSpace=wrap;html=1;aspect=fixed;fontSize=20;fontColor=light-dark(#ffffff, #ededed);fillColor=#000000;" vertex="1" parent="1">
          <mxGeometry x="280" y="80" width="80" height="80" as="geometry" />
        </mxCell>
        <mxCell id="f1JXGICR3c98WOWb6M3R-27" style="rounded=0;orthogonalLoop=1;jettySize=auto;html=1;exitX=0;exitY=1;exitDx=0;exitDy=0;entryX=1;entryY=0;entryDx=0;entryDy=0;fontSize=20;endArrow=none;endFill=1;startFill=0;fontColor=light-dark(#ffffff, #ededed);" edge="1" parent="1" source="f1JXGICR3c98WOWb6M3R-2" target="f1JXGICR3c98WOWb6M3R-5">
          <mxGeometry relative="1" as="geometry" />
        </mxCell>
        <mxCell id="f1JXGICR3c98WOWb6M3R-28" style="rounded=0;orthogonalLoop=1;jettySize=auto;html=1;exitX=1;exitY=1;exitDx=0;exitDy=0;entryX=0;entryY=0;entryDx=0;entryDy=0;fontSize=20;endArrow=none;endFill=1;startFill=0;fontColor=light-dark(#ffffff, #ededed);" edge="1" parent="1" source="f1JXGICR3c98WOWb6M3R-2" target="f1JXGICR3c98WOWb6M3R-6">
          <mxGeometry relative="1" as="geometry" />
        </mxCell>
        <mxCell id="f1JXGICR3c98WOWb6M3R-2" value="8" style="ellipse;whiteSpace=wrap;html=1;aspect=fixed;fontSize=20;fontColor=#ffffff;fillColor=#e51400;strokeColor=#B20000;" vertex="1" parent="1">
          <mxGeometry x="80" y="200" width="80" height="80" as="geometry" />
        </mxCell>
        <mxCell id="f1JXGICR3c98WOWb6M3R-29" style="rounded=0;orthogonalLoop=1;jettySize=auto;html=1;exitX=0;exitY=1;exitDx=0;exitDy=0;entryX=1;entryY=0;entryDx=0;entryDy=0;fontSize=20;endArrow=none;endFill=1;startFill=0;fontColor=light-dark(#ffffff, #ededed);" edge="1" parent="1" source="f1JXGICR3c98WOWb6M3R-4" target="f1JXGICR3c98WOWb6M3R-10">
          <mxGeometry relative="1" as="geometry" />
        </mxCell>
        <mxCell id="f1JXGICR3c98WOWb6M3R-30" style="rounded=0;orthogonalLoop=1;jettySize=auto;html=1;exitX=1;exitY=1;exitDx=0;exitDy=0;entryX=0;entryY=0;entryDx=0;entryDy=0;fontSize=20;endArrow=none;endFill=1;startFill=0;fontColor=light-dark(#ffffff, #ededed);" edge="1" parent="1" source="f1JXGICR3c98WOWb6M3R-4" target="f1JXGICR3c98WOWb6M3R-12">
          <mxGeometry relative="1" as="geometry" />
        </mxCell>
        <mxCell id="f1JXGICR3c98WOWb6M3R-4" value="17" style="ellipse;whiteSpace=wrap;html=1;aspect=fixed;fontSize=20;fontColor=#ffffff;fillColor=#e51400;strokeColor=#B20000;" vertex="1" parent="1">
          <mxGeometry x="480" y="200" width="80" height="80" as="geometry" />
        </mxCell>
        <mxCell id="f1JXGICR3c98WOWb6M3R-37" style="rounded=0;orthogonalLoop=1;jettySize=auto;html=1;exitX=1;exitY=1;exitDx=0;exitDy=0;entryX=0;entryY=0;entryDx=0;entryDy=0;fontSize=20;endArrow=none;endFill=1;startFill=0;fontColor=light-dark(#ffffff, #ededed);" edge="1" parent="1" source="f1JXGICR3c98WOWb6M3R-5" target="f1JXGICR3c98WOWb6M3R-9">
          <mxGeometry relative="1" as="geometry" />
        </mxCell>
        <mxCell id="f1JXGICR3c98WOWb6M3R-38" style="rounded=0;orthogonalLoop=1;jettySize=auto;html=1;exitX=0;exitY=1;exitDx=0;exitDy=0;entryX=0.5;entryY=0;entryDx=0;entryDy=0;fontSize=20;endArrow=none;endFill=1;startFill=0;fontColor=light-dark(#ffffff, #ededed);" edge="1" parent="1" source="f1JXGICR3c98WOWb6M3R-5" target="f1JXGICR3c98WOWb6M3R-14">
          <mxGeometry relative="1" as="geometry" />
        </mxCell>
        <mxCell id="f1JXGICR3c98WOWb6M3R-5" value="1" style="ellipse;whiteSpace=wrap;html=1;aspect=fixed;fontSize=20;fontColor=light-dark(#ffffff, #ededed);fillColor=#000000;" vertex="1" parent="1">
          <mxGeometry x="-40" y="320" width="80" height="80" as="geometry" />
        </mxCell>
        <mxCell id="f1JXGICR3c98WOWb6M3R-35" style="rounded=0;orthogonalLoop=1;jettySize=auto;html=1;exitX=0;exitY=1;exitDx=0;exitDy=0;entryX=0.5;entryY=0;entryDx=0;entryDy=0;fontSize=20;endArrow=none;endFill=1;startFill=0;fontColor=light-dark(#ffffff, #ededed);" edge="1" parent="1" source="f1JXGICR3c98WOWb6M3R-6" target="f1JXGICR3c98WOWb6M3R-17">
          <mxGeometry relative="1" as="geometry" />
        </mxCell>
        <mxCell id="f1JXGICR3c98WOWb6M3R-36" style="rounded=0;orthogonalLoop=1;jettySize=auto;html=1;exitX=1;exitY=1;exitDx=0;exitDy=0;entryX=0.5;entryY=0;entryDx=0;entryDy=0;fontSize=20;endArrow=none;endFill=1;startFill=0;fontColor=light-dark(#ffffff, #ededed);" edge="1" parent="1" source="f1JXGICR3c98WOWb6M3R-6" target="f1JXGICR3c98WOWb6M3R-18">
          <mxGeometry relative="1" as="geometry" />
        </mxCell>
        <mxCell id="f1JXGICR3c98WOWb6M3R-6" value="11" style="ellipse;whiteSpace=wrap;html=1;aspect=fixed;fontSize=20;fontColor=light-dark(#ffffff, #ededed);fillColor=#000000;" vertex="1" parent="1">
          <mxGeometry x="200" y="320" width="80" height="80" as="geometry" />
        </mxCell>
        <mxCell id="f1JXGICR3c98WOWb6M3R-39" style="rounded=0;orthogonalLoop=1;jettySize=auto;html=1;exitX=0;exitY=1;exitDx=0;exitDy=0;entryX=0.5;entryY=0;entryDx=0;entryDy=0;fontSize=20;endArrow=none;endFill=1;startFill=0;" edge="1" parent="1" source="f1JXGICR3c98WOWb6M3R-9" target="f1JXGICR3c98WOWb6M3R-15">
          <mxGeometry relative="1" as="geometry" />
        </mxCell>
        <mxCell id="f1JXGICR3c98WOWb6M3R-40" style="rounded=0;orthogonalLoop=1;jettySize=auto;html=1;exitX=1;exitY=1;exitDx=0;exitDy=0;entryX=0.5;entryY=0;entryDx=0;entryDy=0;fontSize=20;endArrow=none;endFill=1;startFill=0;" edge="1" parent="1" source="f1JXGICR3c98WOWb6M3R-9" target="f1JXGICR3c98WOWb6M3R-16">
          <mxGeometry relative="1" as="geometry" />
        </mxCell>
        <mxCell id="f1JXGICR3c98WOWb6M3R-9" value="6" style="ellipse;whiteSpace=wrap;html=1;aspect=fixed;fontSize=20;fontColor=#ffffff;fillColor=#e51400;strokeColor=#B20000;" vertex="1" parent="1">
          <mxGeometry x="40" y="440" width="80" height="80" as="geometry" />
        </mxCell>
        <mxCell id="f1JXGICR3c98WOWb6M3R-33" style="rounded=0;orthogonalLoop=1;jettySize=auto;html=1;exitX=0;exitY=1;exitDx=0;exitDy=0;entryX=0.5;entryY=0;entryDx=0;entryDy=0;fontSize=20;endArrow=none;endFill=1;startFill=0;fontColor=light-dark(#ffffff, #ededed);" edge="1" parent="1" source="f1JXGICR3c98WOWb6M3R-10" target="f1JXGICR3c98WOWb6M3R-19">
          <mxGeometry relative="1" as="geometry" />
        </mxCell>
        <mxCell id="f1JXGICR3c98WOWb6M3R-34" style="rounded=0;orthogonalLoop=1;jettySize=auto;html=1;exitX=1;exitY=1;exitDx=0;exitDy=0;entryX=0.5;entryY=0;entryDx=0;entryDy=0;fontSize=20;endArrow=none;endFill=1;startFill=0;fontColor=light-dark(#ffffff, #ededed);" edge="1" parent="1" source="f1JXGICR3c98WOWb6M3R-10" target="f1JXGICR3c98WOWb6M3R-20">
          <mxGeometry relative="1" as="geometry" />
        </mxCell>
        <mxCell id="f1JXGICR3c98WOWb6M3R-10" value="15" style="ellipse;whiteSpace=wrap;html=1;aspect=fixed;fontSize=20;fontColor=light-dark(#ffffff, #ededed);fillColor=#000000;" vertex="1" parent="1">
          <mxGeometry x="360" y="320" width="80" height="80" as="geometry" />
        </mxCell>
        <mxCell id="f1JXGICR3c98WOWb6M3R-43" style="rounded=0;orthogonalLoop=1;jettySize=auto;html=1;exitX=0;exitY=1;exitDx=0;exitDy=0;entryX=0.5;entryY=0;entryDx=0;entryDy=0;fontSize=20;endArrow=none;endFill=1;startFill=0;" edge="1" parent="1" source="f1JXGICR3c98WOWb6M3R-11" target="f1JXGICR3c98WOWb6M3R-23">
          <mxGeometry relative="1" as="geometry" />
        </mxCell>
        <mxCell id="f1JXGICR3c98WOWb6M3R-44" style="rounded=0;orthogonalLoop=1;jettySize=auto;html=1;exitX=1;exitY=1;exitDx=0;exitDy=0;entryX=0.5;entryY=0;entryDx=0;entryDy=0;fontSize=20;endArrow=none;endFill=1;startFill=0;" edge="1" parent="1" source="f1JXGICR3c98WOWb6M3R-11" target="f1JXGICR3c98WOWb6M3R-24">
          <mxGeometry relative="1" as="geometry" />
        </mxCell>
        <mxCell id="f1JXGICR3c98WOWb6M3R-11" value="27" style="ellipse;whiteSpace=wrap;html=1;aspect=fixed;fontSize=20;fontColor=#ffffff;fillColor=#e51400;strokeColor=#B20000;" vertex="1" parent="1">
          <mxGeometry x="680" y="440" width="80" height="80" as="geometry" />
        </mxCell>
        <mxCell id="f1JXGICR3c98WOWb6M3R-31" style="rounded=0;orthogonalLoop=1;jettySize=auto;html=1;exitX=0;exitY=1;exitDx=0;exitDy=0;entryX=1;entryY=0;entryDx=0;entryDy=0;fontSize=20;endArrow=none;endFill=1;startFill=0;fontColor=light-dark(#ffffff, #ededed);" edge="1" parent="1" source="f1JXGICR3c98WOWb6M3R-12" target="f1JXGICR3c98WOWb6M3R-13">
          <mxGeometry relative="1" as="geometry" />
        </mxCell>
        <mxCell id="f1JXGICR3c98WOWb6M3R-32" style="rounded=0;orthogonalLoop=1;jettySize=auto;html=1;exitX=1;exitY=1;exitDx=0;exitDy=0;entryX=0;entryY=0;entryDx=0;entryDy=0;fontSize=20;endArrow=none;endFill=1;startFill=0;fontColor=light-dark(#ffffff, #ededed);" edge="1" parent="1" source="f1JXGICR3c98WOWb6M3R-12" target="f1JXGICR3c98WOWb6M3R-11">
          <mxGeometry relative="1" as="geometry">
            <mxPoint x="690" y="430" as="targetPoint" />
          </mxGeometry>
        </mxCell>
        <mxCell id="f1JXGICR3c98WOWb6M3R-12" value="25" style="ellipse;whiteSpace=wrap;html=1;aspect=fixed;fontSize=20;fontColor=light-dark(#ffffff, #ededed);fillColor=#000000;" vertex="1" parent="1">
          <mxGeometry x="600" y="320" width="80" height="80" as="geometry" />
        </mxCell>
        <mxCell id="f1JXGICR3c98WOWb6M3R-41" style="rounded=0;orthogonalLoop=1;jettySize=auto;html=1;exitX=0;exitY=1;exitDx=0;exitDy=0;entryX=0.5;entryY=0;entryDx=0;entryDy=0;fontSize=20;endArrow=none;endFill=1;startFill=0;" edge="1" parent="1" source="f1JXGICR3c98WOWb6M3R-13" target="f1JXGICR3c98WOWb6M3R-21">
          <mxGeometry relative="1" as="geometry" />
        </mxCell>
        <mxCell id="f1JXGICR3c98WOWb6M3R-42" style="rounded=0;orthogonalLoop=1;jettySize=auto;html=1;exitX=1;exitY=1;exitDx=0;exitDy=0;entryX=0.5;entryY=0;entryDx=0;entryDy=0;fontSize=20;endArrow=none;endFill=1;startFill=0;" edge="1" parent="1" source="f1JXGICR3c98WOWb6M3R-13" target="f1JXGICR3c98WOWb6M3R-22">
          <mxGeometry relative="1" as="geometry" />
        </mxCell>
        <mxCell id="f1JXGICR3c98WOWb6M3R-13" value="22" style="ellipse;whiteSpace=wrap;html=1;aspect=fixed;fontSize=20;fontColor=#ffffff;fillColor=#e51400;strokeColor=#B20000;" vertex="1" parent="1">
          <mxGeometry x="520" y="440" width="80" height="80" as="geometry" />
        </mxCell>
        <mxCell id="f1JXGICR3c98WOWb6M3R-14" value="NIL" style="rounded=0;whiteSpace=wrap;html=1;fontSize=20;fillColor=#000000;fontColor=light-dark(#ffffff, #ededed);" vertex="1" parent="1">
          <mxGeometry x="-90" y="465" width="50" height="30" as="geometry" />
        </mxCell>
        <mxCell id="f1JXGICR3c98WOWb6M3R-15" value="NIL" style="rounded=0;whiteSpace=wrap;html=1;fontSize=20;fillColor=#000000;fontColor=light-dark(#ffffff, #ededed);" vertex="1" parent="1">
          <mxGeometry x="-10" y="570" width="50" height="30" as="geometry" />
        </mxCell>
        <mxCell id="f1JXGICR3c98WOWb6M3R-16" value="&lt;span style=&quot;font-family: Helvetica; font-size: 20px; font-style: normal; font-variant-ligatures: normal; font-variant-caps: normal; font-weight: 400; letter-spacing: normal; orphans: 2; text-align: center; text-indent: 0px; text-transform: none; widows: 2; word-spacing: 0px; -webkit-text-stroke-width: 0px; white-space: normal; text-decoration-thickness: initial; text-decoration-style: initial; text-decoration-color: initial; float: none; display: inline !important;&quot;&gt;NIL&lt;/span&gt;" style="rounded=0;whiteSpace=wrap;html=1;fontSize=20;fillColor=#000000;fontColor=light-dark(#ffffff, #ededed);" vertex="1" parent="1">
          <mxGeometry x="120" y="570" width="50" height="30" as="geometry" />
        </mxCell>
        <mxCell id="f1JXGICR3c98WOWb6M3R-17" value="&lt;span style=&quot;font-family: Helvetica; font-size: 20px; font-style: normal; font-variant-ligatures: normal; font-variant-caps: normal; font-weight: 400; letter-spacing: normal; orphans: 2; text-align: center; text-indent: 0px; text-transform: none; widows: 2; word-spacing: 0px; -webkit-text-stroke-width: 0px; white-space: normal; text-decoration-thickness: initial; text-decoration-style: initial; text-decoration-color: initial; float: none; display: inline !important;&quot;&gt;NIL&lt;/span&gt;" style="rounded=0;whiteSpace=wrap;html=1;fontSize=20;fillColor=#000000;fontColor=light-dark(#ffffff, #ededed);" vertex="1" parent="1">
          <mxGeometry x="160" y="465" width="50" height="30" as="geometry" />
        </mxCell>
        <mxCell id="f1JXGICR3c98WOWb6M3R-18" value="&lt;span style=&quot;font-family: Helvetica; font-size: 20px; font-style: normal; font-variant-ligatures: normal; font-variant-caps: normal; font-weight: 400; letter-spacing: normal; orphans: 2; text-align: center; text-indent: 0px; text-transform: none; widows: 2; word-spacing: 0px; -webkit-text-stroke-width: 0px; white-space: normal; text-decoration-thickness: initial; text-decoration-style: initial; text-decoration-color: initial; float: none; display: inline !important;&quot;&gt;NIL&lt;/span&gt;" style="rounded=0;whiteSpace=wrap;html=1;fontSize=20;fillColor=#000000;fontColor=light-dark(#ffffff, #ededed);" vertex="1" parent="1">
          <mxGeometry x="270" y="465" width="50" height="30" as="geometry" />
        </mxCell>
        <mxCell id="f1JXGICR3c98WOWb6M3R-19" value="&lt;span style=&quot;font-family: Helvetica; font-size: 20px; font-style: normal; font-variant-ligatures: normal; font-variant-caps: normal; font-weight: 400; letter-spacing: normal; orphans: 2; text-align: center; text-indent: 0px; text-transform: none; widows: 2; word-spacing: 0px; -webkit-text-stroke-width: 0px; white-space: normal; text-decoration-thickness: initial; text-decoration-style: initial; text-decoration-color: initial; float: none; display: inline !important;&quot;&gt;NIL&lt;/span&gt;" style="rounded=0;whiteSpace=wrap;html=1;fontSize=20;fillColor=#000000;fontColor=light-dark(#ffffff, #ededed);" vertex="1" parent="1">
          <mxGeometry x="330" y="465" width="50" height="30" as="geometry" />
        </mxCell>
        <mxCell id="f1JXGICR3c98WOWb6M3R-20" value="&lt;span style=&quot;font-family: Helvetica; font-size: 20px; font-style: normal; font-variant-ligatures: normal; font-variant-caps: normal; font-weight: 400; letter-spacing: normal; orphans: 2; text-align: center; text-indent: 0px; text-transform: none; widows: 2; word-spacing: 0px; -webkit-text-stroke-width: 0px; white-space: normal; text-decoration-thickness: initial; text-decoration-style: initial; text-decoration-color: initial; float: none; display: inline !important;&quot;&gt;NIL&lt;/span&gt;" style="rounded=0;whiteSpace=wrap;html=1;fontSize=20;fillColor=#000000;fontColor=light-dark(#ffffff, #ededed);" vertex="1" parent="1">
          <mxGeometry x="420" y="465" width="50" height="30" as="geometry" />
        </mxCell>
        <mxCell id="f1JXGICR3c98WOWb6M3R-21" value="&lt;span style=&quot;font-family: Helvetica; font-size: 20px; font-style: normal; font-variant-ligatures: normal; font-variant-caps: normal; font-weight: 400; letter-spacing: normal; orphans: 2; text-align: center; text-indent: 0px; text-transform: none; widows: 2; word-spacing: 0px; -webkit-text-stroke-width: 0px; white-space: normal; text-decoration-thickness: initial; text-decoration-style: initial; text-decoration-color: initial; float: none; display: inline !important;&quot;&gt;NIL&lt;/span&gt;" style="rounded=0;whiteSpace=wrap;html=1;fontSize=20;fillColor=#000000;fontColor=light-dark(#ffffff, #ededed);" vertex="1" parent="1">
          <mxGeometry x="490" y="570" width="50" height="30" as="geometry" />
        </mxCell>
        <mxCell id="f1JXGICR3c98WOWb6M3R-22" value="&lt;span style=&quot;font-family: Helvetica; font-size: 20px; font-style: normal; font-variant-ligatures: normal; font-variant-caps: normal; font-weight: 400; letter-spacing: normal; orphans: 2; text-align: center; text-indent: 0px; text-transform: none; widows: 2; word-spacing: 0px; -webkit-text-stroke-width: 0px; white-space: normal; text-decoration-thickness: initial; text-decoration-style: initial; text-decoration-color: initial; float: none; display: inline !important;&quot;&gt;NIL&lt;/span&gt;" style="rounded=0;whiteSpace=wrap;html=1;fontSize=20;fillColor=#000000;fontColor=light-dark(#ffffff, #ededed);" vertex="1" parent="1">
          <mxGeometry x="580" y="570" width="50" height="30" as="geometry" />
        </mxCell>
        <mxCell id="f1JXGICR3c98WOWb6M3R-23" value="&lt;span style=&quot;font-family: Helvetica; font-size: 20px; font-style: normal; font-variant-ligatures: normal; font-variant-caps: normal; font-weight: 400; letter-spacing: normal; orphans: 2; text-align: center; text-indent: 0px; text-transform: none; widows: 2; word-spacing: 0px; -webkit-text-stroke-width: 0px; white-space: normal; text-decoration-thickness: initial; text-decoration-style: initial; text-decoration-color: initial; float: none; display: inline !important;&quot;&gt;NIL&lt;/span&gt;" style="rounded=0;whiteSpace=wrap;html=1;fontSize=20;fillColor=#000000;fontColor=light-dark(#ffffff, #ededed);" vertex="1" parent="1">
          <mxGeometry x="650" y="570" width="50" height="30" as="geometry" />
        </mxCell>
        <mxCell id="f1JXGICR3c98WOWb6M3R-24" value="&lt;span style=&quot;font-family: Helvetica; font-size: 20px; font-style: normal; font-variant-ligatures: normal; font-variant-caps: normal; font-weight: 400; letter-spacing: normal; orphans: 2; text-align: center; text-indent: 0px; text-transform: none; widows: 2; word-spacing: 0px; -webkit-text-stroke-width: 0px; white-space: normal; text-decoration-thickness: initial; text-decoration-style: initial; text-decoration-color: initial; float: none; display: inline !important;&quot;&gt;NIL&lt;/span&gt;" style="rounded=0;whiteSpace=wrap;html=1;fontSize=20;fillColor=#000000;fontColor=light-dark(#ffffff, #ededed);" vertex="1" parent="1">
          <mxGeometry x="750" y="570" width="50" height="30" as="geometry" />
        </mxCell>
      </root>
    </mxGraphModel>
  </diagram>
</mxfile>
